<svg width="90" height="90" viewBox="0 0 90 90" fill="none" xmlns="http://www.w3.org/2000/svg">
<g id="vuesax/linear/3d-rotate">
<g id="3d-rotate">
<g id="Group">
<g id="Group_2">
<path id="Vector" d="M25.125 34.7241L45 46.2366L64.725 34.7991" stroke="#F13748" stroke-width="4.5" stroke-linecap="round" stroke-linejoin="round"/>
<path id="Vector_2" d="M45 66.6372V46.1997" stroke="#F13748" stroke-width="4.5" stroke-linecap="round" stroke-linejoin="round"/>
</g>
<path id="Vector_3" d="M40.3502 23.587L28.3502 30.262C25.6502 31.762 23.4001 35.5495 23.4001 38.6619V51.3744C23.4001 54.4869 25.6127 58.2745 28.3502 59.7745L40.3502 66.4495C42.9002 67.8745 47.1002 67.8745 49.6877 66.4495L61.6877 59.7745C64.3877 58.2745 66.6376 54.4869 66.6376 51.3744V38.6245C66.6376 35.512 64.4252 31.7245 61.6877 30.2245L49.6877 23.5495C47.1002 22.1245 42.9002 22.1245 40.3502 23.587Z" stroke="#F13748" stroke-width="4.5" stroke-linecap="round" stroke-linejoin="round"/>
</g>
<g id="Group_3">
<path id="Vector_4" d="M82.5 56.25C82.5 70.7625 70.7625 82.5 56.25 82.5L60.1875 75.9375" stroke="#F13748" stroke-width="4.5" stroke-linecap="round" stroke-linejoin="round"/>
<path id="Vector_5" d="M7.5 33.75C7.5 19.2375 19.2375 7.5 33.75 7.5L29.8125 14.0625" stroke="#F13748" stroke-width="4.5" stroke-linecap="round" stroke-linejoin="round"/>
</g>
</g>
</g>
</svg>
