<svg width="60" height="60" viewBox="0 0 60 60" fill="none" xmlns="http://www.w3.org/2000/svg">
<path d="M55 24.375C53.975 24.375 53.125 23.525 53.125 22.5V17.5C53.125 11.05 48.95 6.875 42.5 6.875H17.5C11.05 6.875 6.875 11.05 6.875 17.5V22.5C6.875 23.525 6.025 24.375 5 24.375C3.975 24.375 3.125 23.525 3.125 22.5V17.5C3.125 8.9 8.9 3.125 17.5 3.125H42.5C51.1 3.125 56.875 8.9 56.875 17.5V22.5C56.875 23.525 56.025 24.375 55 24.375Z" fill="white"/>
<path d="M42.5 56.875H17.5C8.9 56.875 3.125 51.1 3.125 42.5V37.5C3.125 36.475 3.975 35.625 5 35.625C6.025 35.625 6.875 36.475 6.875 37.5V42.5C6.875 48.95 11.05 53.125 17.5 53.125H42.5C48.95 53.125 53.125 48.95 53.125 42.5V37.5C53.125 36.475 53.975 35.625 55 35.625C56.025 35.625 56.875 36.475 56.875 37.5V42.5C56.875 51.1 51.1 56.875 42.5 56.875Z" fill="white"/>
<path d="M40.9999 20.5249L31.5999 15.4499C30.5999 14.9249 29.4249 14.9249 28.4249 15.4499L18.9999 20.5249C18.3249 20.8999 17.8999 21.6249 17.8999 22.4249C17.8999 23.2499 18.3249 23.9749 18.9999 24.3499L28.3999 29.4249C28.8999 29.6999 29.4499 29.8249 29.9999 29.8249C30.5499 29.8249 31.0999 29.6999 31.5999 29.4249L40.9999 24.3499C41.6749 23.9749 42.0999 23.2499 42.0999 22.4249C42.0999 21.6249 41.6749 20.8999 40.9999 20.5249Z" fill="white"/>
<path d="M26.85 31.1751L18.1 26.8001C17.425 26.4751 16.65 26.5001 16 26.9001C15.375 27.3001 15 27.9751 15 28.7251V37.0001C15 38.4251 15.8 39.7251 17.075 40.3501L25.825 44.7251C26.125 44.8751 26.45 44.9501 26.8 44.9501C27.2 44.9501 27.575 44.8501 27.925 44.6251C28.575 44.2251 28.95 43.5501 28.95 42.8001V34.5251C28.925 33.1001 28.15 31.8251 26.85 31.1751Z" fill="white"/>
<path d="M43.975 26.9001C43.325 26.5001 42.55 26.4751 41.875 26.8001L33.125 31.1751C31.85 31.8251 31.05 33.1001 31.05 34.5251V42.8001C31.05 43.5501 31.425 44.2251 32.075 44.6251C32.425 44.8501 32.8 44.9501 33.2 44.9501C33.525 44.9501 33.85 44.8751 34.175 44.7251L42.925 40.3501C44.2 39.7001 45 38.4251 45 37.0001V28.7251C45 27.9751 44.625 27.3001 43.975 26.9001Z" fill="white"/>
</svg>
