<svg width="36" height="36" viewBox="0 0 36 36" fill="none" xmlns="http://www.w3.org/2000/svg">
<path d="M22.3955 3.75V12.6C22.3955 13.26 21.6155 13.59 21.1355 13.155L18.5105 10.74C18.2255 10.47 17.7755 10.47 17.4905 10.74L14.8655 13.14C14.3855 13.59 13.6055 13.245 13.6055 12.6V3.75C13.6055 3.33 13.9355 3 14.3555 3H21.6455C22.0655 3 22.3955 3.33 22.3955 3.75Z" fill="#F13748"/>
<path d="M25.47 3.08983C25.035 3.02983 24.645 3.40483 24.645 3.83983V12.8698C24.645 14.0098 23.97 15.0448 22.92 15.5098C21.87 15.9598 20.655 15.7648 19.815 14.9848L18.51 13.7848C18.225 13.5148 17.79 13.5148 17.49 13.7848L16.185 14.9848C15.645 15.4948 14.94 15.7498 14.235 15.7498C13.845 15.7498 13.455 15.6748 13.08 15.5098C12.03 15.0448 11.355 14.0098 11.355 12.8698V3.83983C11.355 3.40483 10.965 3.02983 10.53 3.08983C6.33 3.61483 4.5 6.44983 4.5 10.4998V25.4998C4.5 29.9998 6.75 32.9998 12 32.9998H24C29.25 32.9998 31.5 29.9998 31.5 25.4998V10.4998C31.5 6.44983 29.67 3.61483 25.47 3.08983ZM26.25 28.1248H13.5C12.885 28.1248 12.375 27.6148 12.375 26.9998C12.375 26.3848 12.885 25.8748 13.5 25.8748H26.25C26.865 25.8748 27.375 26.3848 27.375 26.9998C27.375 27.6148 26.865 28.1248 26.25 28.1248ZM26.25 22.1248H19.875C19.26 22.1248 18.75 21.6148 18.75 20.9998C18.75 20.3848 19.26 19.8748 19.875 19.8748H26.25C26.865 19.8748 27.375 20.3848 27.375 20.9998C27.375 21.6148 26.865 22.1248 26.25 22.1248Z" fill="#F13748"/>
</svg>
