<svg width="72" height="72" viewBox="0 0 72 72" fill="none" xmlns="http://www.w3.org/2000/svg">
<path d="M54 18C52.17 18 50.49 16.95 49.65 15.33L47.49 10.98C46.11 8.25 42.51 6 39.45 6H32.58C29.49 6 25.89 8.25 24.51 10.98L22.35 15.33C21.51 16.95 19.83 18 18 18C11.49 18 6.33001 23.49 6.75001 29.97L8.31001 54.75C8.67001 60.93 12 66 20.28 66H51.72C60 66 63.3 60.93 63.69 54.75L65.25 29.97C65.67 23.49 60.51 18 54 18ZM31.5 21.75H40.5C41.73 21.75 42.75 22.77 42.75 24C42.75 25.23 41.73 26.25 40.5 26.25H31.5C30.27 26.25 29.25 25.23 29.25 24C29.25 22.77 30.27 21.75 31.5 21.75ZM36 54.36C30.42 54.36 25.86 49.83 25.86 44.22C25.86 38.61 30.39 34.08 36 34.08C41.61 34.08 46.14 38.61 46.14 44.22C46.14 49.83 41.58 54.36 36 54.36Z" fill="#1F2B4D"/>
</svg>
