<svg width="63" height="65" viewBox="0 0 63 65" fill="none" xmlns="http://www.w3.org/2000/svg">
<g id="Frame 3092">
<path id="Vector" d="M45.1952 9C51.0152 9 55.6952 13.71 55.6952 19.5C55.6952 25.17 51.1952 29.79 45.5852 30C45.3452 29.97 45.0752 29.97 44.8052 30M50.9854 57C53.1454 56.55 55.1853 55.68 56.8653 54.39C61.5453 50.88 61.5453 45.09 56.8653 41.58C55.2153 40.32 53.2054 39.48 51.0754 39M23.4453 29.61C23.1453 29.58 22.7853 29.58 22.4553 29.61C15.3153 29.37 9.64526 23.52 9.64526 16.32C9.64526 8.97 15.5853 3 22.9653 3C30.3153 3 36.2853 8.97 36.2853 16.32C36.2553 23.52 30.5853 29.37 23.4453 29.61ZM8.445 40.68C1.185 45.54 1.185 53.46 8.445 58.29C16.695 63.81 30.225 63.81 38.475 58.29C45.735 53.43 45.735 45.51 38.475 40.68C30.255 35.19 16.725 35.19 8.445 40.68Z" stroke="#292D32" stroke-width="4.5" stroke-linecap="round" stroke-linejoin="round"/>
</g>
</svg>
