<svg width="33" height="36" viewBox="0 0 33 36" fill="none" xmlns="http://www.w3.org/2000/svg">
<path id="Vector" d="M12.75 6H20.25C20.25 5.00544 19.8549 4.05161 19.1516 3.34835C18.4484 2.64509 17.4946 2.25 16.5 2.25C15.5054 2.25 14.5516 2.64509 13.8483 3.34835C13.1451 4.05161 12.75 5.00544 12.75 6ZM10.5 6C10.5 4.4087 11.1321 2.88258 12.2574 1.75736C13.3826 0.632141 14.9087 0 16.5 0C18.0913 0 19.6174 0.632141 20.7426 1.75736C21.8679 2.88258 22.5 4.4087 22.5 6H31.875C32.1734 6 32.4595 6.11853 32.6705 6.3295C32.8815 6.54048 33 6.82663 33 7.125C33 7.42337 32.8815 7.70952 32.6705 7.9205C32.4595 8.13147 32.1734 8.25 31.875 8.25H29.91L28.0845 30.1545C27.9517 31.748 27.2249 33.2334 26.0482 34.3161C24.8716 35.3989 23.331 35.9999 21.732 36H11.268C9.66899 35.9999 8.12841 35.3989 6.95176 34.3161C5.7751 33.2334 5.04831 31.748 4.9155 30.1545L3.09 8.25H1.125C0.826631 8.25 0.540483 8.13147 0.329505 7.9205C0.118526 7.70952 0 7.42337 0 7.125C0 6.82663 0.118526 6.54048 0.329505 6.3295C0.540483 6.11853 0.826631 6 1.125 6H10.5ZM14.25 14.625C14.25 14.3266 14.1315 14.0405 13.9205 13.8295C13.7095 13.6185 13.4234 13.5 13.125 13.5C12.8266 13.5 12.5405 13.6185 12.3295 13.8295C12.1185 14.0405 12 14.3266 12 14.625V27.375C12 27.6734 12.1185 27.9595 12.3295 28.1705C12.5405 28.3815 12.8266 28.5 13.125 28.5C13.4234 28.5 13.7095 28.3815 13.9205 28.1705C14.1315 27.9595 14.25 27.6734 14.25 27.375V14.625ZM19.875 13.5C19.5766 13.5 19.2905 13.6185 19.0795 13.8295C18.8685 14.0405 18.75 14.3266 18.75 14.625V27.375C18.75 27.6734 18.8685 27.9595 19.0795 28.1705C19.2905 28.3815 19.5766 28.5 19.875 28.5C20.1734 28.5 20.4595 28.3815 20.6705 28.1705C20.8815 27.9595 21 27.6734 21 27.375V14.625C21 14.3266 20.8815 14.0405 20.6705 13.8295C20.4595 13.6185 20.1734 13.5 19.875 13.5Z" fill="white"/>
</svg>
