<svg width="66" height="61" viewBox="0 0 66 61" fill="none" xmlns="http://www.w3.org/2000/svg">
<path d="M59.9988 34.6492C61.6787 34.5892 62.9987 33.2393 62.9987 31.5893V25.4093C62.9987 23.7593 61.6787 22.4095 59.9988 22.3495M59.9988 34.6492H54.1188C50.8789 34.6492 47.909 32.2792 47.639 29.0393C47.459 27.1493 48.179 25.3793 49.4389 24.1494C50.5489 23.0094 52.0789 22.3495 53.7589 22.3495H59.9988M59.9988 34.6492L59.9989 38.9993C59.9989 47.9991 53.999 53.999 44.9992 53.999H37.4993M59.9988 22.3495L59.9989 17.9997C59.9989 9.77987 54.989 4.04994 47.2491 3.14996C46.5291 3.02996 45.7792 3 44.9992 3H17.9997C17.1597 3 16.3497 3.05999 15.5698 3.17999C7.91991 4.13997 3 9.83986 3 17.9997V23.9996M29.2542 43.0803V49.1702C29.2542 54.3301 24.4543 58.5 18.5444 58.5C12.6345 58.5 7.80459 54.3301 7.80459 49.1702V43.0803C7.80459 48.2402 12.6045 51.9001 18.5444 51.9001C24.4543 51.9001 29.2542 48.2102 29.2542 43.0803ZM29.2497 34.8293C29.2497 36.3293 28.8297 37.7092 28.1097 38.9092C26.3397 41.8191 22.7097 43.6492 18.5098 43.6492C14.3099 43.6492 10.6799 41.7891 8.90998 38.9092C8.18999 37.7092 7.77017 36.3293 7.77017 34.8293C7.77017 32.2494 8.97008 29.9394 10.89 28.2594C12.84 26.5495 15.5099 25.5296 18.4798 25.5296C21.4497 25.5296 24.1198 26.5795 26.0697 28.2594C28.0497 29.9094 29.2497 32.2494 29.2497 34.8293Z" stroke="#292D32" stroke-width="4.5" stroke-linecap="round" stroke-linejoin="round"/>
</svg>
