<svg width="36" height="36" viewBox="0 0 36 36" fill="none" xmlns="http://www.w3.org/2000/svg">
<g id="Vector">
<path d="M25.8941 5.55305L16.5681 0.406321C15.5777 -0.13544 14.4058 -0.13544 13.4154 0.406321L4.10592 5.55305C3.42916 5.94244 3 6.68736 3 7.5C3 8.32957 3.41265 9.07449 4.10592 9.44695L13.4319 14.5937C13.9271 14.8646 14.4718 15 15 15C15.5282 15 16.0894 14.8646 16.5681 14.5937L25.8941 9.44695C26.5708 9.07449 27 8.32957 27 7.5C27 6.68736 26.5708 5.94244 25.8941 5.55305Z" fill="#F13748"/>
<path d="M12.7599 16.5057L3.35125 12.2307C2.61649 11.888 1.79211 11.937 1.09319 12.3122C0.412186 12.7039 0 13.3729 0 14.1071V22.2004C0 23.6037 0.860215 24.8601 2.24014 25.4965L11.6487 29.7716C11.9713 29.9184 12.3297 30 12.6882 30C13.1004 30 13.5305 29.8858 13.9068 29.69C14.5878 29.2984 15 28.6294 15 27.8951V19.8018C14.9821 18.3985 14.1219 17.1421 12.7599 16.5057Z" fill="#F13748"/>
<path d="M30 14.1129V18.1378C29.311 17.9088 28.5789 17.8106 27.8469 17.8106C25.8947 17.8106 23.9856 18.5796 22.4785 19.954C20.4115 21.8028 19.2344 24.6007 19.2344 27.6276C19.2344 28.4293 19.3206 29.231 19.5072 30C19.2919 29.9673 19.0766 29.8691 18.8756 29.7219C18.3301 29.3455 18 28.6747 18 27.9384V19.8231C18 18.416 18.689 17.1561 19.7799 16.518L27.3158 12.2313C27.9043 11.8877 28.5646 11.9368 29.1244 12.3131C29.6699 12.7058 30 13.3766 30 14.1129Z" fill="#F13748"/>
<path d="M34.3333 23.8333C34.3333 23.8167 34.3167 23.8 34.3 23.7833C34.2333 23.6833 34.15 23.5833 34.0667 23.5C34.05 23.4833 34.0333 23.45 34.0167 23.4333C32.6667 21.9333 30.6833 21 28.5 21C26.4 21 24.4833 21.8667 23.1167 23.2667C21.8 24.6167 21 26.4667 21 28.5C21 29.9 21.4 31.2333 22.0833 32.3667C22.45 32.9833 22.9167 33.55 23.45 34.0167C23.4833 34.0333 23.5 34.05 23.5167 34.0667C23.6 34.15 23.6833 34.2167 23.7833 34.3C23.7833 34.3 23.7833 34.3 23.8 34.3C23.8167 34.3167 23.8333 34.3333 23.85 34.3333C25.1 35.3833 26.7167 36 28.5 36C31.2333 36 33.6167 34.5333 34.9167 32.3667C35.3 31.7167 35.6 31 35.7833 30.25C35.9333 29.6833 36 29.1 36 28.5C36 26.7333 35.3833 25.1 34.3333 23.8333ZM31.3 29.7167H29.75V31.3333C29.75 32.0167 29.1833 32.5833 28.5 32.5833C27.8167 32.5833 27.25 32.0167 27.25 31.3333V29.7167H25.7C25.0167 29.7167 24.45 29.15 24.45 28.4667C24.45 27.7833 25.0167 27.2167 25.7 27.2167H27.25V25.7333C27.25 25.05 27.8167 24.4833 28.5 24.4833C29.1833 24.4833 29.75 25.05 29.75 25.7333V27.2167H31.3C31.9833 27.2167 32.55 27.7833 32.55 28.4667C32.55 29.15 32 29.7167 31.3 29.7167Z" fill="#F13748"/>
</g>
</svg>
