<svg width="36" height="36" viewBox="0 0 36 36" fill="none" xmlns="http://www.w3.org/2000/svg">
<path d="M35.1213 5.12132C36.2929 3.94975 36.2929 2.05025 35.1213 0.87868C33.9497 -0.292893 32.0503 -0.292893 30.8787 0.87868L35.1213 5.12132ZM1.7196e-06 33C1.12954e-06 34.6569 1.34315 36 3 36L30 36C31.6569 36 33 34.6569 33 33C33 31.3431 31.6569 30 30 30H6V6C6 4.34315 4.65686 3 3 3C1.34315 3 3.37238e-08 4.34315 3.37238e-08 6L1.7196e-06 33ZM30.8787 0.87868L0.87868 30.8787L5.12132 35.1213L35.1213 5.12132L30.8787 0.87868Z" fill="#61C234"/>
</svg>
