<svg width="39" height="51" viewBox="0 0 39 51" fill="none" xmlns="http://www.w3.org/2000/svg">
<path d="M19.5 0C11.7 0 5.17384 4.25974 5.57144 14.875V22.3125H3.25C1.4495 22.3125 0 23.8006 0 25.8188V47.3571C0 49.3753 1.4495 51 3.25 51H35.75C37.5505 51 39 49.3753 39 47.3571V25.8188C39 23.8006 37.5763 22.3125 35.75 22.3125H33.4286L27.8572 14.875H33.4286C33.4286 4.25001 27.3 0 19.5 0ZM19.5 6.375C23.4 6.375 27.8572 7.90737 27.8572 14.875L33.4286 22.3125H27.8572H11.1429V14.875C11.1429 7.97633 15.6 6.375 19.5 6.375Z" fill="#61C234"/>
</svg>
