<svg width="75" height="75" viewBox="0 0 75 75" fill="none" xmlns="http://www.w3.org/2000/svg">
<path d="M57.135 46.9199L56.6175 46.7174L57.06 46.3724C60.33 43.8149 62.2125 39.9974 62.2125 35.8949C62.2125 28.5449 56.19 22.5674 48.795 22.5674C41.4 22.5674 35.3775 28.5449 35.3775 35.8949C35.3775 39.9974 37.2525 43.8149 40.53 46.3724L40.9725 46.7174L40.455 46.9199C31.8075 50.3549 26.22 58.5299 26.22 67.7399V72.2924C26.22 73.3724 27.105 74.2499 28.1925 74.2499H69.4125C70.5 74.2499 71.385 73.3724 71.385 72.2924V67.7399C71.37 58.5299 65.7825 50.3549 57.135 46.9199ZM39.3075 35.8949C39.3075 30.6974 43.56 26.4749 48.7875 26.4749C54.015 26.4749 58.2675 30.6974 58.2675 35.8949C58.2675 41.0924 54.015 45.3149 48.7875 45.3149C43.56 45.3149 39.3075 41.0849 39.3075 35.8949ZM67.4325 70.3424H30.15V67.7474C30.15 57.5324 38.5125 49.2299 48.795 49.2299C59.07 49.2299 67.4325 57.5399 67.4325 67.7474V70.3424Z" fill="#1F2B4D"/>
<path d="M32.5648 20.8427L23.2948 30.1127C22.9798 30.4277 22.7998 30.8552 22.7998 31.3052C22.7998 31.7552 22.9723 32.1752 23.2948 32.4902C23.6098 32.8052 24.0373 32.9852 24.4873 32.9852C24.9373 32.9852 25.3573 32.8127 25.6723 32.4902L34.9423 23.2202C35.5948 22.5602 35.5948 21.4952 34.9423 20.8427C34.6273 20.5277 34.1998 20.3477 33.7498 20.3477C33.3073 20.3477 32.8798 20.5277 32.5648 20.8427Z" fill="#1F2B4D"/>
<path d="M28.3574 51.8625L28.2224 51.3225C27.9974 50.385 27.8174 49.41 27.6899 48.4275L27.6224 47.91L27.1049 47.985C26.2724 48.1125 25.4249 48.1725 24.5849 48.1725C15.2474 48.18 7.64988 40.5825 7.64988 31.245C7.64988 21.9075 15.2474 14.31 24.5849 14.31C30.2849 14.31 35.5724 17.16 38.7224 21.945L39.0074 22.38L39.4349 22.0875C40.2524 21.525 41.0924 21.015 41.9324 20.5575L42.4199 20.295L42.1124 19.83C41.2274 18.4725 40.1924 17.235 39.0374 16.125C40.5074 16.11 40.5749 16.1025 40.6349 16.095C40.8374 16.0575 41.0399 15.9525 41.1899 15.795L44.0474 12.945C44.2124 12.78 44.3174 12.585 44.3474 12.39C44.3924 12.135 44.3174 11.895 44.1524 11.73L40.8224 8.4C40.6874 8.265 40.5074 8.1975 40.2899 8.1975H40.2074L40.1624 8.205C39.9599 8.235 39.7499 8.3475 39.5999 8.505L36.7424 11.355C36.5849 11.5125 36.4799 11.715 36.4424 11.9325C36.4349 11.9775 36.4274 12.06 36.4199 14.01C33.9149 12.285 31.0424 11.1225 27.9899 10.605V7.035H29.2724C29.4974 7.035 29.7149 6.9675 29.8649 6.855C30.0824 6.7125 30.2024 6.4875 30.2024 6.2475V1.5375C30.2024 1.305 30.0824 1.0875 29.8724 0.9375C29.7074 0.8175 29.4899 0.75 29.2649 0.75H19.8824C19.6574 0.75 19.4399 0.8175 19.2749 0.9375C19.0724 1.0875 18.9524 1.305 18.9524 1.5375V6.2475C18.9524 6.48 19.0724 6.6975 19.2824 6.855C19.4549 6.975 19.6649 7.035 19.8824 7.035H21.1649V10.5975C11.1449 12.255 3.62988 21.0675 3.62988 31.245C3.62988 42.795 13.0274 52.2 24.5849 52.2C25.6574 52.2 26.7449 52.1175 27.8024 51.9525L28.3574 51.8625Z" fill="#1F2B4D"/>
</svg>
