<svg width="37" height="37" viewBox="0 0 37 37" fill="none" xmlns="http://www.w3.org/2000/svg">
<path id="Vector" d="M23.45 26.75H21.95H23.45ZM18.5495 5.45C17.721 5.45 17.0495 6.12157 17.0495 6.95C17.0495 7.77843 17.721 8.45 18.5495 8.45V5.45ZM25.1495 12.7415L26.1371 13.8705L26.1389 13.8689L25.1495 12.7415ZM11.966 24.275L12.9508 25.4064L12.9536 25.404L11.966 24.275ZM18.5495 31.55C19.3779 31.55 20.0495 30.8784 20.0495 30.05C20.0495 29.2216 19.3779 28.55 18.5495 28.55V31.55ZM7.80181 6.275C6.97338 6.275 6.30181 6.94657 6.30181 7.775C6.30181 8.60343 6.97338 9.275 7.80181 9.275V6.275ZM7.82087 9.275C8.6493 9.275 9.32087 8.60343 9.32087 7.775C9.32087 6.94657 8.6493 6.275 7.82087 6.275V9.275ZM29.2518 27.725C28.4234 27.725 27.7518 28.3966 27.7518 29.225C27.7518 30.0534 28.4234 30.725 29.2518 30.725V27.725ZM29.2709 30.725C30.0993 30.725 30.7709 30.0534 30.7709 29.225C30.7709 28.3966 30.0993 27.725 29.2709 27.725V30.725ZM12.05 7.775C12.05 10.136 10.136 12.05 7.775 12.05V15.05C11.7929 15.05 15.05 11.7929 15.05 7.775H12.05ZM7.775 12.05C5.41398 12.05 3.5 10.136 3.5 7.775H0.5C0.5 11.7929 3.75713 15.05 7.775 15.05V12.05ZM3.5 7.775C3.5 5.41398 5.41398 3.5 7.775 3.5V0.5C3.75713 0.5 0.5 3.75713 0.5 7.775H3.5ZM7.775 3.5C10.136 3.5 12.05 5.41398 12.05 7.775H15.05C15.05 3.75713 11.7929 0.5 7.775 0.5V3.5ZM26.75 24.95H31.7V21.95H26.75V24.95ZM31.7 24.95C32.6866 24.95 33.5 25.7634 33.5 26.75H36.5C36.5 24.1066 34.3434 21.95 31.7 21.95V24.95ZM33.5 26.75V31.7H36.5V26.75H33.5ZM33.5 31.7C33.5 32.6866 32.6866 33.5 31.7 33.5V36.5C34.3434 36.5 36.5 34.3434 36.5 31.7H33.5ZM31.7 33.5H26.75V36.5H31.7V33.5ZM26.75 33.5C25.7634 33.5 24.95 32.6866 24.95 31.7H21.95C21.95 34.3434 24.1066 36.5 26.75 36.5V33.5ZM24.95 31.7V26.75H21.95V31.7H24.95ZM24.95 26.75C24.95 25.7634 25.7634 24.95 26.75 24.95V21.95C24.1066 21.95 21.95 24.1066 21.95 26.75L24.95 26.75ZM18.5495 8.45H22.9715V5.45H18.5495V8.45ZM22.9715 8.45C24.6363 8.45 25.4161 10.5116 24.16 11.6141L26.1389 13.8689C29.4698 10.9454 27.4116 5.45 22.9715 5.45V8.45ZM24.1618 11.6125L10.9783 23.146L12.9536 25.404L26.1371 13.8705L24.1618 11.6125ZM10.9811 23.1436C7.63958 26.0524 9.70704 31.55 14.1275 31.55V28.55C12.4759 28.55 11.7053 26.4906 12.9508 25.4064L10.9811 23.1436ZM14.1275 31.55H18.5495V28.55H14.1275V31.55ZM7.80181 9.275H7.82087V6.275H7.80181V9.275ZM29.2518 30.725H29.2709V27.725H29.2518V30.725Z" fill="#747C90"/>
</svg>
