<svg width="58" height="66" viewBox="0 0 58 66" fill="none" xmlns="http://www.w3.org/2000/svg">
<path d="M3.72845 22.4749L1.5345 21.9758L1.53398 21.9781L3.72845 22.4749ZM54.021 22.5049L51.8265 23.0016L51.8265 23.0017L54.021 22.5049ZM39.6774 58.6339L38.119 57.011L38.1149 57.015L39.6774 58.6339ZM18.042 58.6339L16.4807 60.254L16.4835 60.2567L18.042 58.6339ZM22.2138 29.9161C21.3351 29.0375 19.9105 29.0375 19.0318 29.9161C18.1531 30.7948 18.1531 32.2194 19.0318 33.0981L22.2138 29.9161ZM25.1239 36.0082L23.5329 37.5992C24.4116 38.4779 25.8362 38.4779 26.7149 37.5992L25.1239 36.0082ZM38.7179 25.5962C39.5966 24.7176 39.5966 23.2929 38.7179 22.4143C37.8392 21.5356 36.4146 21.5356 35.5359 22.4143L38.7179 25.5962ZM5.9224 22.974C8.60236 11.193 18.6311 5.24308 28.8845 5.25001C39.1381 5.25694 49.1602 11.2207 51.8265 23.0016L56.2155 22.0082C53.0004 7.80252 40.8319 0.758081 28.8875 0.750008C16.9428 0.741934 4.76602 7.77022 1.5345 21.9758L5.9224 22.974ZM51.8265 23.0017C54.9989 37.015 46.3169 49.1387 38.119 57.011L41.2359 60.2568C49.6621 52.1652 59.9449 38.4824 56.2155 22.0081L51.8265 23.0017ZM38.1149 57.015C32.9573 61.9929 24.7935 61.9984 19.6006 57.0111L16.4835 60.2567C23.4136 66.9123 34.3345 66.9178 41.24 60.2528L38.1149 57.015ZM19.6034 57.0138C11.4346 49.141 2.75017 36.9869 5.92292 22.9717L1.53398 21.9781C-2.19499 38.4504 8.08533 52.1628 16.4807 60.254L19.6034 57.0138ZM19.0318 33.0981L23.5329 37.5992L26.7149 34.4173L22.2138 29.9161L19.0318 33.0981ZM26.7149 37.5992L38.7179 25.5962L35.5359 22.4143L23.5329 34.4173L26.7149 37.5992Z" fill="#1F2B4D"/>
</svg>
