<svg width="56" height="54" viewBox="0 0 56 54" fill="none" xmlns="http://www.w3.org/2000/svg">
<path d="M51.4875 18.3567C50.1379 15.0698 48.2057 12.1184 45.7454 9.58391C43.285 7.04973 40.4192 5.05964 37.2281 3.66955C33.9233 2.22982 30.4139 1.5 26.7969 1.5C23.18 1.5 19.6705 2.23009 16.3658 3.66955C13.1746 5.05964 10.3091 7.04973 7.84846 9.58391C5.38808 12.1181 3.45596 15.0698 2.10635 18.3567C0.708561 21.7606 0 25.3754 0 29.1008C0 32.8263 0.708826 36.441 2.10635 39.8449C3.45596 43.1315 5.38782 46.0833 7.84846 48.6177L8.95949 49.7621L13.7269 44.8516L11.5049 42.5629L8.99576 45.1473C7.32869 43.1896 5.98809 40.9885 5.00071 38.5841C3.97096 36.0764 3.3654 33.4375 3.19382 30.7195H6.74219V27.4827H3.19409C3.36593 24.7645 3.97123 22.1258 5.00097 19.6181C5.98835 17.2137 7.32921 15.0125 8.99629 13.0552L11.5051 15.6393L13.7272 13.3505L11.2184 10.7665C13.1187 9.04936 15.2558 7.668 17.5901 6.65127C20.0248 5.59064 22.5868 4.96691 25.2257 4.79018V8.445H28.3681V4.79018C31.0072 4.96718 33.569 5.59064 36.0037 6.65127C38.338 7.66827 40.4751 9.04936 42.3755 10.7665L39.8666 13.3505L42.0887 15.6393L44.5975 13.0552C46.2646 15.0125 47.6057 17.2137 48.5929 19.6181C49.6226 22.1258 50.2282 24.7647 50.3997 27.4827H46.8514V30.7195H50.3997C50.2279 33.4377 49.6226 36.0766 48.5929 38.5841C47.6055 40.9885 46.2649 43.1896 44.5978 45.1473L42.0887 42.5629L39.8666 44.8516L44.6341 49.7621L45.7451 48.6177C48.2055 46.0833 50.1373 43.1318 51.4872 39.8449C52.885 36.4413 53.5936 32.8263 53.5936 29.1008C53.5936 25.3754 52.8847 21.7606 51.4872 18.3567H51.4875Z" fill="#1F2B4D"/>
<path d="M29.7109 29.1005C29.7109 27.7625 28.8607 26.6291 27.6867 26.2418L27.0014 13.0246C26.9876 12.7587 26.6066 12.7587 26.5928 13.0246L25.9076 26.2418C24.7335 26.6291 23.8833 27.7625 23.8833 29.1005C23.8833 30.1634 24.4198 31.0974 25.2295 31.6309L24.966 36.7121C24.9408 37.197 25.316 37.6044 25.7874 37.6044H27.8071C28.2784 37.6044 28.6536 37.197 28.6285 36.7121L28.365 31.6309C29.1747 31.0974 29.7112 30.1634 29.7112 29.1005H29.7109Z" fill="#1F2B4D"/>
<path d="M34.696 47.0498H18.8979V53.7H34.696V47.0498Z" fill="#1F2B4D"/>
</svg>
