<svg width="58" height="66" viewBox="0 0 58 66" fill="none" xmlns="http://www.w3.org/2000/svg">
<path d="M42.8155 0.195984C43.2871 0.451108 43.453 0.896741 43.4656 1.82731V2.66862L45.9769 2.71991C48.3989 2.75788 48.5262 2.77121 49.2143 3.08961C50.0935 3.50993 50.9222 4.30062 51.2919 5.10329L51.5597 5.68948L51.6236 34.1142L51.6876 62.5389L53.9184 62.5643C56.3145 62.6022 56.6209 62.6788 56.9266 63.265C57.2324 63.8639 57.1558 64.3614 56.6715 64.8457L56.2378 65.28H44.8678H33.4978L33.0642 64.8464L32.6305 64.4134V55.3508V46.2882H28.5518H24.4732V55.3508V64.4134L24.0395 64.8464L23.6066 65.28H12.2365H0.866516L0.433537 64.8464C0.127787 64.5406 -0.000106812 64.2982 -0.000106812 64.0177C-0.000106812 63.5208 0.292982 62.9339 0.598732 62.7814C0.725961 62.7175 1.86037 62.6409 3.12267 62.6029L5.41678 62.5389L5.48074 34.1142L5.54468 5.68948L5.81246 5.10329C6.18216 4.29995 7.01081 3.50993 7.89009 3.08961C8.5782 2.77121 8.70609 2.75788 11.1148 2.71991L13.6387 2.66862V1.86528C13.6387 0.89674 13.8172 0.450437 14.2889 0.195312C14.7984 -0.0584797 42.3439 -0.0717969 42.8155 0.195984ZM16.3152 3.52326C16.3152 4.03284 16.2386 4.51778 16.1114 4.74692C15.767 5.42237 15.372 5.49897 12.1086 5.49897C8.90926 5.49897 8.60351 5.55027 8.31042 6.19973C8.19584 6.45486 8.15721 13.0954 8.15721 34.5738V62.6036L14.9383 62.5782L21.7321 62.5403L21.796 53.4011L21.86 44.2492L22.217 43.9049L22.5614 43.5478H28.5525H34.5436L34.888 43.9049L35.245 44.2492L35.309 53.4011L35.3729 62.5403L42.154 62.5782L48.9478 62.6036V34.5738C48.9478 13.0961 48.9098 6.45486 48.7946 6.19973C48.5015 5.5496 48.1958 5.49897 44.9964 5.49897C41.7331 5.49897 41.338 5.42237 40.9943 4.74692C40.8671 4.51711 40.7905 4.03284 40.7905 3.52326V2.6946H28.5538H16.3172V3.52326H16.3152Z" fill="#1F2B4D"/>
<path d="M45.4667 11.0565C46.244 11.4388 46.27 11.6427 46.27 16.3335C46.27 21.0496 46.2447 21.2408 45.4414 21.6105C44.8552 21.8909 39.6035 21.9036 38.9533 21.6358C38.0994 21.2788 38.112 21.3554 38.112 16.3075V11.7446L38.4817 11.3369L38.8514 10.9166L41.9615 10.8786C44.5874 10.8526 45.1223 10.8779 45.4667 11.0565ZM40.7885 16.3335V19.0106H42.1267H43.465V16.3335V13.657H42.1267H40.7885V16.3335Z" fill="#1F2B4D"/>
<path d="M31.8267 11.0438C32.6041 11.3755 32.6294 11.5154 32.6294 16.3335C32.6294 20.0298 32.6041 20.7439 32.4256 21.0623C32.0812 21.7377 31.6735 21.8143 28.5507 21.8143C25.428 21.8143 25.0196 21.7377 24.6759 21.0623C24.4974 20.7439 24.4721 20.0298 24.4721 16.3335C24.4721 11.4901 24.4847 11.3749 25.3007 11.0312C25.9122 10.776 31.2279 10.776 31.8267 11.0438ZM27.1492 16.3335V19.0106H28.5514H29.9536V16.3335V13.657H28.5514H27.1492V16.3335Z" fill="#1F2B4D"/>
<path d="M18.1757 10.9797C18.3289 11.031 18.5707 11.2475 18.7239 11.4387C18.9917 11.7698 18.9917 11.8717 18.9917 16.3207C18.9917 21.3559 19.0043 21.2793 18.1504 21.6364C17.5002 21.9041 12.2485 21.8915 11.6624 21.611C10.8597 21.2413 10.8337 21.0502 10.8337 16.334C10.8337 11.6179 10.859 11.4267 11.6624 11.057C12.0067 10.8912 12.5929 10.8532 15.0016 10.8658C16.595 10.8652 18.0358 10.9158 18.1757 10.9797ZM13.6381 16.3334V19.0105H14.9763H16.3145V16.3334V13.6569H14.9763H13.6381V16.3334Z" fill="#1F2B4D"/>
<path d="M45.4667 27.3719C46.244 27.7543 46.27 27.9581 46.27 32.6489C46.27 37.3651 46.2447 37.5562 45.4414 37.9259C44.8552 38.2064 39.6035 38.219 38.9533 37.9512C38.0994 37.5942 38.112 37.6708 38.112 32.6229V28.06L38.4817 27.6523L38.8514 27.232L41.9615 27.194C44.5874 27.1681 45.1223 27.1934 45.4667 27.3719ZM40.7885 32.6489V35.3254H42.1267H43.465V32.6489V29.9724H42.1267H40.7885V32.6489Z" fill="#1F2B4D"/>
<path d="M31.8267 27.3591C32.6041 27.6908 32.6294 27.8307 32.6294 32.6487C32.6294 37.4921 32.6167 37.6073 31.8007 37.9511C31.1759 38.2062 25.9249 38.2062 25.3001 37.9511C24.4841 37.6067 24.4714 37.4921 24.4714 32.6487C24.4714 27.8054 24.4841 27.6901 25.3001 27.3464C25.9122 27.0913 31.2279 27.0913 31.8267 27.3591ZM27.1492 32.6487V35.3252H28.5514H29.9536V32.6487V29.9723H28.5514H27.1492V32.6487Z" fill="#1F2B4D"/>
<path d="M18.1757 27.295C18.3289 27.3463 18.5707 27.5628 18.7239 27.754C18.9917 28.0851 18.9917 28.187 18.9917 32.636C18.9917 37.6073 19.0043 37.5433 18.227 37.9383C17.6661 38.2314 12.2619 38.2188 11.6624 37.9257C10.8597 37.556 10.8337 37.3648 10.8337 32.6487C10.8337 27.9325 10.859 27.7413 11.6624 27.3716C12.0067 27.2058 12.5929 27.1678 15.0016 27.1805C16.595 27.1805 18.0358 27.2318 18.1757 27.295ZM13.6381 32.6487V35.3251H14.9763H16.3145V32.6487V29.9722H14.9763H13.6381V32.6487Z" fill="#1F2B4D"/>
<path d="M45.4667 43.6876C46.244 44.07 46.27 44.2738 46.27 48.9646C46.27 53.6808 46.2447 53.872 45.4414 54.2417C44.8552 54.5221 39.6035 54.5348 38.9533 54.267C38.0994 53.9099 38.112 53.9865 38.112 48.9387V44.3757L38.4817 43.9681L38.8514 43.5478L41.9615 43.5098C44.5874 43.4831 45.1223 43.5091 45.4667 43.6876ZM40.7885 48.9646V51.6411H42.1267H43.465V48.9646V46.2882H42.1267H40.7885V48.9646Z" fill="#1F2B4D"/>
<path d="M18.1757 43.6111C18.3289 43.6624 18.5707 43.8789 18.7239 44.0701C18.9917 44.4011 18.9917 44.503 18.9917 48.9774V53.5536L18.622 53.9613L18.2523 54.3816L15.1802 54.4196C11.7256 54.4709 11.4072 54.4069 11.0375 53.6169C10.7318 52.9921 10.7318 44.9367 11.0375 44.3119C11.3946 43.5472 11.7256 43.4832 15.0016 43.4959C16.595 43.4965 18.0358 43.5472 18.1757 43.6111ZM13.6381 48.9647V51.6412H14.9763H16.3146V48.9647V46.2882H14.9763H13.6381V48.9647Z" fill="#1F2B4D"/>
</svg>
