<svg width="36" height="36" viewBox="0 0 36 36" fill="none" xmlns="http://www.w3.org/2000/svg">
<path d="M0.87868 30.8787C-0.292893 32.0503 -0.292893 33.9497 0.87868 35.1213C2.05025 36.2929 3.94975 36.2929 5.12132 35.1213L0.87868 30.8787ZM36 3C36 1.34315 34.6569 1.12954e-06 33 1.7196e-06L6 3.37238e-08C4.34315 3.37238e-08 3 1.34315 3 3C3 4.65686 4.34315 6 6 6H30V30C30 31.6569 31.3431 33 33 33C34.6569 33 36 31.6569 36 30L36 3ZM5.12132 35.1213L35.1213 5.12132L30.8787 0.87868L0.87868 30.8787L5.12132 35.1213Z" fill="#FF2E00"/>
</svg>
