<svg width="20" height="20" viewBox="0 0 20 20" fill="none" xmlns="http://www.w3.org/2000/svg">
<g id="Frame 4681">
<rect width="20" height="20" rx="10" fill="#F13748"/>
<path id="Vector" d="M9.25 6H11.75C11.75 5.66848 11.6183 5.35054 11.3839 5.11612C11.1495 4.8817 10.8315 4.75 10.5 4.75C10.1685 4.75 9.85054 4.8817 9.61612 5.11612C9.3817 5.35054 9.25 5.66848 9.25 6ZM8.5 6C8.5 5.46957 8.71071 4.96086 9.08579 4.58579C9.46086 4.21071 9.96957 4 10.5 4C11.0304 4 11.5391 4.21071 11.9142 4.58579C12.2893 4.96086 12.5 5.46957 12.5 6H15.625C15.7245 6 15.8198 6.03951 15.8902 6.10983C15.9605 6.18016 16 6.27554 16 6.375C16 6.47446 15.9605 6.56984 15.8902 6.64017C15.8198 6.71049 15.7245 6.75 15.625 6.75H14.97L14.3615 14.0515C14.3172 14.5827 14.075 15.0778 13.6827 15.4387C13.2905 15.7996 12.777 16 12.244 16H8.756C8.223 16 7.70947 15.7996 7.31725 15.4387C6.92503 15.0778 6.68277 14.5827 6.6385 14.0515L6.03 6.75H5.375C5.27554 6.75 5.18016 6.71049 5.10983 6.64017C5.03951 6.56984 5 6.47446 5 6.375C5 6.27554 5.03951 6.18016 5.10983 6.10983C5.18016 6.03951 5.27554 6 5.375 6H8.5ZM9.75 8.875C9.75 8.77554 9.71049 8.68016 9.64016 8.60984C9.56984 8.53951 9.47446 8.5 9.375 8.5C9.27554 8.5 9.18016 8.53951 9.10984 8.60984C9.03951 8.68016 9 8.77554 9 8.875V13.125C9 13.2245 9.03951 13.3198 9.10984 13.3902C9.18016 13.4605 9.27554 13.5 9.375 13.5C9.47446 13.5 9.56984 13.4605 9.64016 13.3902C9.71049 13.3198 9.75 13.2245 9.75 13.125V8.875ZM11.625 8.5C11.5255 8.5 11.4302 8.53951 11.3598 8.60984C11.2895 8.68016 11.25 8.77554 11.25 8.875V13.125C11.25 13.2245 11.2895 13.3198 11.3598 13.3902C11.4302 13.4605 11.5255 13.5 11.625 13.5C11.7245 13.5 11.8198 13.4605 11.8902 13.3902C11.9605 13.3198 12 13.2245 12 13.125V8.875C12 8.77554 11.9605 8.68016 11.8902 8.60984C11.8198 8.53951 11.7245 8.5 11.625 8.5Z" fill="white"/>
</g>
</svg>
