<svg width="36" height="42" viewBox="0 0 36 42" fill="none" xmlns="http://www.w3.org/2000/svg">
<path d="M16.3398 0.683418C17.2567 -0.227806 18.7433 -0.227806 19.6602 0.683418L25.9199 6.90452C25.9195 6.90415 25.9203 6.90489 25.9199 6.90452C26.8368 7.81575 26.8379 9.29425 25.921 10.2055L19.6602 16.4277C18.7433 17.3389 17.2567 17.3389 16.3398 16.4277C15.423 15.5165 15.423 14.0391 16.3398 13.1279L18.5825 10.8991C18.3904 10.8923 18.1963 10.8889 18 10.8889C10.6376 10.8889 4.69565 16.8277 4.69565 24.1111C4.69565 31.428 10.6713 37.3333 18 37.3333C25.3246 37.3333 31.3043 31.3905 31.3043 24.1111C31.3043 21.3757 30.4829 18.837 29.0722 16.7692C28.3446 15.7025 28.6248 14.2516 29.698 13.5285C30.7713 12.8053 32.2312 13.0838 32.9589 14.1504C34.8963 16.9905 36 20.4413 36 24.1111C36 33.9678 27.9179 42 18 42C8.08615 42 0 34.0135 0 24.1111C0 14.2585 8.03612 6.22222 18 6.22222C18.202 6.22222 18.4024 6.22507 18.6012 6.23067L16.3398 3.98325C15.423 3.07203 15.423 1.59464 16.3398 0.683418Z" fill="#F13748"/>
</svg>
