<svg width="60" height="60" viewBox="0 0 60 60" fill="none" xmlns="http://www.w3.org/2000/svg">
<path d="M5 24.375C3.975 24.375 3.125 23.525 3.125 22.5V16.25C3.125 9 9.025 3.125 16.25 3.125H22.5C23.525 3.125 24.375 3.975 24.375 5C24.375 6.025 23.525 6.875 22.5 6.875H16.25C11.075 6.875 6.875 11.075 6.875 16.25V22.5C6.875 23.525 6.025 24.375 5 24.375Z" fill="white"/>
<path d="M55 24.375C53.975 24.375 53.125 23.525 53.125 22.5V16.25C53.125 11.075 48.925 6.875 43.75 6.875H37.5C36.475 6.875 35.625 6.025 35.625 5C35.625 3.975 36.475 3.125 37.5 3.125H43.75C50.975 3.125 56.875 9 56.875 16.25V22.5C56.875 23.525 56.025 24.375 55 24.375Z" fill="white"/>
<path d="M43.75 56.875H40C38.975 56.875 38.125 56.025 38.125 55C38.125 53.975 38.975 53.125 40 53.125H43.75C48.925 53.125 53.125 48.925 53.125 43.75V40C53.125 38.975 53.975 38.125 55 38.125C56.025 38.125 56.875 38.975 56.875 40V43.75C56.875 51 50.975 56.875 43.75 56.875Z" fill="white"/>
<path d="M22.5 56.875H16.25C9.025 56.875 3.125 51 3.125 43.75V37.5C3.125 36.475 3.975 35.625 5 35.625C6.025 35.625 6.875 36.475 6.875 37.5V43.75C6.875 48.925 11.075 53.125 16.25 53.125H22.5C23.525 53.125 24.375 53.975 24.375 55C24.375 56.025 23.525 56.875 22.5 56.875Z" fill="white"/>
<path d="M21.25 28.4498C25.2265 28.4498 28.4501 25.2263 28.4501 21.2498C28.4501 17.2734 25.2265 14.0498 21.25 14.0498C17.2736 14.0498 14.05 17.2734 14.05 21.2498C14.05 25.2263 17.2736 28.4498 21.25 28.4498Z" fill="white"/>
<path d="M18.75 45.9498C21.3458 45.9498 23.4501 43.8455 23.4501 41.2498C23.4501 38.6541 21.3458 36.5498 18.75 36.5498C16.1543 36.5498 14.05 38.6541 14.05 41.2498C14.05 43.8455 16.1543 45.9498 18.75 45.9498Z" fill="white"/>
<path d="M41.25 23.4498C43.8458 23.4498 45.95 21.3455 45.95 18.7498C45.95 16.1541 43.8458 14.0498 41.25 14.0498C38.6543 14.0498 36.55 16.1541 36.55 18.7498C36.55 21.3455 38.6543 23.4498 41.25 23.4498Z" fill="white"/>
<path d="M38.75 45.9498C42.7265 45.9498 45.95 42.7263 45.95 38.7498C45.95 34.7734 42.7265 31.5498 38.75 31.5498C34.7736 31.5498 31.55 34.7734 31.55 38.7498C31.55 42.7263 34.7736 45.9498 38.75 45.9498Z" fill="white"/>
</svg>
