<svg width="72" height="72" viewBox="0 0 72 72" fill="none" xmlns="http://www.w3.org/2000/svg">
<g id="shop-svgrepo-com 1" clip-path="url(#clip0_637_26100)">
<g id="Group">
<g id="Group_2">
<g id="Group_3">
<path id="Vector" d="M21.6001 51.5999V53.9999C21.6001 54.6622 22.1377 55.1999 22.8 55.1999C23.4624 55.1999 24 54.6622 24 53.9999V51.5999C24 50.9375 23.4624 50.3999 22.8 50.3999C22.1377 50.3999 21.6001 50.9375 21.6001 51.5999Z" fill="black"/>
<path id="Vector_2" d="M70.8 69.6001H69.6001V31.8C69.6001 31.1377 69.0625 30.6001 68.4001 30.6001C67.7378 30.6001 67.2002 31.1377 67.2002 31.8V69.6001H4.79995V31.8C4.79995 31.1377 4.26234 30.6001 3.6 30.6001C2.93766 30.6001 2.40005 31.1377 2.40005 31.8V69.6001H1.19995C0.537609 69.6001 0 70.1377 0 70.8C0 71.4624 0.537609 72.0001 1.19995 72.0001H70.7999C71.4622 72.0001 71.9999 71.4625 71.9999 70.8001C71.9999 70.1378 71.4624 69.6001 70.8 69.6001Z" fill="black"/>
<path id="Vector_3" d="M27.6001 67.1999C28.2624 67.1999 28.8001 66.6623 28.8001 66V37.2C28.8001 36.5376 28.2624 36 27.6001 36H10.8001C10.1377 36 9.6001 36.5376 9.6001 37.2V66C9.6001 66.6623 10.1377 67.1999 10.8001 67.1999C11.4624 67.1999 12 66.6623 12 66V38.3999H26.4V66C26.4 66.6623 26.9376 67.1999 27.6001 67.1999Z" fill="black"/>
<path id="Vector_4" d="M50.0485 43.5516C49.5792 43.0824 48.8208 43.0824 48.3517 43.5516C47.8824 44.0208 47.8824 44.7792 48.3517 45.2483L53.1517 50.0483C53.3857 50.2823 53.6929 50.3998 54 50.3998C54.3073 50.3998 54.6144 50.2823 54.8484 50.0483C55.3177 49.579 55.3177 48.8206 54.8484 48.3515L50.0485 43.5516Z" fill="black"/>
<path id="Vector_5" d="M66 0H6.00005C2.69156 0 0 2.69156 0 6.00005V27.4788C0 27.8401 0.162 28.1808 0.440438 28.4088C0.718875 28.6356 1.08717 28.7267 1.43888 28.6547C3.35531 28.2659 4.97053 27.1223 5.99892 25.5731C7.28888 27.5171 9.49809 28.7999 12.0001 28.7999C14.501 28.7999 16.7089 27.5182 18.0001 25.5755C19.2914 27.5182 21.4993 28.7999 24.0002 28.7999C26.5011 28.7999 28.709 27.5182 30.0002 25.5755C31.2912 27.5183 33.4993 28.8 36 28.8C38.5009 28.8 40.7088 27.5183 42 25.5756C43.2913 27.5183 45.4992 28.8 48.0001 28.8C50.5008 28.8 52.7089 27.5183 54.0001 25.5756C55.2914 27.5183 57.4993 28.8 60.0002 28.8C62.5022 28.8 64.7114 27.5172 66.0014 25.5732C67.0298 27.1225 68.645 28.266 70.5614 28.6549C70.9154 28.7281 71.2803 28.6369 71.5599 28.4089C71.8383 28.181 72.0003 27.8401 72.0003 27.479V6.00005C72 2.69156 69.3084 0 66 0ZM69.6 25.7567C68.1515 24.9168 67.1999 23.346 67.1999 21.6V6.00005C67.1999 5.3377 66.6623 4.80009 66 4.80009C65.3376 4.80009 64.8 5.3377 64.8 6.00005V21.6C64.8 24.2473 62.6472 26.4 60.0001 26.4C57.3529 26.4 55.2001 24.2471 55.2001 21.6V6.00005C55.2001 5.3377 54.6625 4.80009 54.0001 4.80009C53.3378 4.80009 52.8002 5.3377 52.8002 6.00005V21.6C52.8002 24.2473 50.6474 26.4 48.0002 26.4C45.353 26.4 43.2003 24.2471 43.2003 21.6V6.00005C43.2003 5.3377 42.6627 4.80009 42.0003 4.80009C41.338 4.80009 40.8004 5.3377 40.8004 6.00005V21.6C40.8004 24.2473 38.6475 26.4 36.0004 26.4C33.3532 26.4 31.2005 24.2471 31.2005 21.6V6.00005C31.2005 5.3377 30.6629 4.80009 30.0005 4.80009C29.3382 4.80009 28.8006 5.3377 28.8006 6.00005V21.6C28.8006 24.2473 26.6477 26.4 24.0006 26.4C21.3535 26.4 19.2007 24.2471 19.2007 21.6V6.00005C19.2007 5.3377 18.663 4.80009 18.0007 4.80009C17.3384 4.80009 16.8008 5.3377 16.8008 6.00005V21.6C16.8008 24.2473 14.6479 26.4 12.0008 26.4C9.35353 26.4 7.20084 24.2471 7.20084 21.6V6.00005C7.20084 5.3377 6.66324 4.80009 6.00089 4.80009C5.33855 4.80009 4.80094 5.3377 4.80094 6.00005V21.6C4.80094 23.346 3.84933 24.9168 2.40089 25.7567V6.00005C2.40089 4.01527 4.01611 2.40005 6.00089 2.40005H66.0009C67.9857 2.40005 69.6009 4.01527 69.6009 6.00005L69.6 25.7567Z" fill="black"/>
<path id="Vector_6" d="M61.1999 62.4C61.8622 62.4 62.3999 61.8623 62.3999 61.2V37.2C62.3999 36.5376 61.8622 36 61.1999 36H32.3999C31.7376 36 31.2 36.5376 31.2 37.2V61.2C31.2 61.8623 31.7376 62.4 32.3999 62.4H61.1999ZM33.5999 38.4H59.9998V60H33.5999V38.4Z" fill="black"/>
<path id="Vector_7" d="M54.8484 41.1518C54.3793 40.6825 53.6208 40.6825 53.1516 41.1518C52.6825 41.621 52.6825 42.3794 53.1516 42.8485L55.5517 45.2486C55.7857 45.4826 56.093 45.6001 56.4001 45.6001C56.7073 45.6001 57.0145 45.4826 57.2485 45.2486C57.7177 44.7793 57.7177 44.0209 57.2485 43.5518L54.8484 41.1518Z" fill="black"/>
</g>
</g>
</g>
</g>
<defs>
<clipPath id="clip0_637_26100">
<rect width="72" height="72" fill="white"/>
</clipPath>
</defs>
</svg>
