<svg width="25" height="24" viewBox="0 0 25 24" fill="none" xmlns="http://www.w3.org/2000/svg">
<path id="Vector" d="M14.1781 1.72633L16.3052 5.9807C16.5953 6.56085 17.3688 7.14099 18.0134 7.23768L21.8649 7.88228C24.3305 8.30127 24.9107 10.0739 23.138 11.8466L20.1406 14.8601C19.6411 15.3597 19.351 16.3427 19.5121 17.0517L20.3662 20.7743C21.0431 23.7073 19.4799 24.8514 16.8854 23.3205L13.2756 21.1772C12.6149 20.7904 11.5513 20.7904 10.8906 21.1772L7.2647 23.3044C4.67017 24.8353 3.10701 23.6911 3.78385 20.7582L4.63794 17.0356C4.7991 16.3427 4.50902 15.3597 4.00946 14.844L1.02817 11.8627C-0.744483 10.09 -0.164341 8.30127 2.30126 7.89839L6.15276 7.25379C6.79736 7.14099 7.57088 6.57696 7.86095 5.99682L9.98814 1.74245C11.1323 -0.578122 13.0339 -0.578122 14.1781 1.72633Z" fill="#F78217"/>
</svg>
