<svg width="37" height="42" viewBox="0 0 37 42" fill="none" xmlns="http://www.w3.org/2000/svg">
<path d="M18.2071 5.56482C8.16904 5.56482 0 13.7339 0 23.7719C0 33.81 8.16904 42 18.2071 42C28.2451 42 36.4142 33.831 36.4142 23.7929C36.4142 13.7549 28.2451 5.56482 18.2071 5.56482ZM19.7821 23.0999C19.7821 23.9609 19.0681 24.6749 18.2071 24.6749C17.3461 24.6749 16.6321 23.9609 16.6321 23.0999V12.5999C16.6321 11.7389 17.3461 11.0248 18.2071 11.0248C19.0681 11.0248 19.7821 11.7389 19.7821 12.5999V23.0999Z" fill="#0D9478"/>
<path d="M24.2762 3.04501H12.1382C11.2982 3.04501 10.6262 2.37301 10.6262 1.53301C10.6262 0.693003 11.2982 0 12.1382 0H24.2762C25.1162 0 25.7882 0.672003 25.7882 1.51201C25.7882 2.35201 25.1162 3.04501 24.2762 3.04501Z" fill="#0D9478"/>
</svg>
