<svg width="57" height="51" viewBox="0 0 57 51" fill="none" xmlns="http://www.w3.org/2000/svg">
<path d="M19.2772 4.71885V38.4672M37.8905 11.5208V46.2556M3 14.5318V39.7911C3 44.7236 6.50464 46.7485 10.7621 44.3082L16.8628 40.8295C18.1868 40.0767 20.3934 39.9988 21.7693 40.6997L35.3984 47.5273C36.7743 48.2023 38.981 48.1503 40.3049 47.3975L51.5457 40.9593C52.9736 40.1286 54.1677 38.1037 54.1677 36.4423V11.1829C54.1677 6.25045 50.6631 4.22555 46.4056 6.66581L40.3049 10.1445C38.981 10.8973 36.7743 10.9752 35.3984 10.2743L21.7693 3.4727C20.3934 2.79773 18.1868 2.84965 16.8628 3.6025L5.62199 10.0407C4.16821 10.8714 3 12.8963 3 14.5318Z" stroke="white" stroke-width="4.5" stroke-linecap="round" stroke-linejoin="round"/>
</svg>
