<svg width="30" height="30" viewBox="0 0 30 30" fill="none" xmlns="http://www.w3.org/2000/svg">
<path d="M13.5953 19.425L10.8162 22.2C10.2303 22.785 9.2989 22.785 8.69801 22.215C8.53276 22.05 8.36751 21.9 8.20226 21.735C6.65495 20.175 5.25786 18.54 4.011 16.83C2.77916 15.12 1.78767 13.41 1.06659 11.715C0.360539 10.005 0 8.36998 0 6.80999C0 5.78999 0.180269 4.81499 0.540808 3.91499C0.901348 2.99999 1.4722 2.16 2.26839 1.41C3.22983 0.464999 4.2814 0 5.39306 0C5.81369 0 6.23432 0.0899999 6.60988 0.27C7.00047 0.449999 7.34598 0.719999 7.61639 1.11L11.1016 6.01499C11.372 6.38999 11.5673 6.73499 11.7025 7.06499C11.8377 7.37999 11.9128 7.69499 11.9128 7.97999C11.9128 8.33998 11.8077 8.69998 11.5973 9.04498C11.402 9.38998 11.1166 9.74998 10.7561 10.11L9.61437 11.295C9.44913 11.46 9.37402 11.655 9.37402 11.895C9.37402 12.015 9.38904 12.12 9.41908 12.24C9.46415 12.36 9.50922 12.45 9.53926 12.54C9.80967 13.035 10.2754 13.68 10.9364 14.46C11.6124 15.24 12.3334 16.035 13.1146 16.83C13.2648 16.98 13.4301 17.13 13.5803 17.28C14.1812 17.865 14.1962 18.825 13.5953 19.425Z" fill="#F13748"/>
<path d="M30 24.495C30 24.915 29.9249 25.35 29.7747 25.77C29.7296 25.89 29.6845 26.01 29.6244 26.13C29.3691 26.67 29.0386 27.18 28.6029 27.66C27.8668 28.47 27.0556 29.055 26.1392 29.43C26.1242 29.43 26.1092 29.445 26.0942 29.445C25.2078 29.805 24.2464 30 23.2099 30C21.6776 30 20.0401 29.64 18.3125 28.905C16.5849 28.17 14.8574 27.18 13.1448 25.935C12.5589 25.5 11.973 25.065 11.4172 24.6L16.3296 19.695C16.7502 20.01 17.1258 20.25 17.4412 20.415C17.5163 20.445 17.6065 20.49 17.7116 20.535C17.8318 20.58 17.952 20.595 18.0872 20.595C18.3426 20.595 18.5379 20.505 18.7031 20.34L19.8448 19.215C20.2204 18.84 20.5809 18.555 20.9264 18.375C21.272 18.165 21.6175 18.06 21.993 18.06C22.2785 18.06 22.5789 18.12 22.9094 18.255C23.2399 18.39 23.5854 18.585 23.961 18.84L28.9334 22.365C29.324 22.635 29.5944 22.95 29.7596 23.325C29.9099 23.7 30 24.075 30 24.495Z" fill="#F13748"/>
</svg>
