<svg width="54" height="54" viewBox="0 0 54 54" fill="none" xmlns="http://www.w3.org/2000/svg">
<path d="M49.5 19.125C49.5 27.2025 42.9525 33.75 34.875 33.75C34.4925 33.75 34.0875 33.7275 33.705 33.705C33.1425 26.5725 27.4275 20.8575 20.295 20.295C20.2725 19.9125 20.25 19.5075 20.25 19.125C20.25 11.0475 26.7975 4.5 34.875 4.5C42.9525 4.5 49.5 11.0475 49.5 19.125Z" stroke="white" stroke-width="3" stroke-linecap="round" stroke-linejoin="round"/>
<path d="M33.75 34.875C33.75 42.9525 27.2025 49.5 19.125 49.5C11.0475 49.5 4.5 42.9525 4.5 34.875C4.5 26.7975 11.0475 20.25 19.125 20.25C19.5075 20.25 19.9125 20.2725 20.295 20.295C27.4275 20.8575 33.1425 26.5725 33.705 33.705C33.7275 34.0875 33.75 34.4925 33.75 34.875Z" stroke="white" stroke-width="3" stroke-linecap="round" stroke-linejoin="round"/>
<path d="M17.145 32.895L19.125 29.25L21.105 32.895L24.75 34.875L21.105 36.855L19.125 40.5L17.145 36.855L13.5 34.875L17.145 32.895Z" stroke="white" stroke-width="3" stroke-linecap="round" stroke-linejoin="round"/>
</svg>
