<svg width="66" height="66" viewBox="0 0 66 66" fill="none" xmlns="http://www.w3.org/2000/svg">
<path d="M33 39H36C39.3 39 42 36.3 42 33M42 33V3H15C10.5 3 6.57003 5.48996 4.53003 9.14996M42 33V12H47.5201C49.6801 12 51.6601 13.17 52.7401 15.03L57.8699 24M3 48C3 52.98 7.02 57 12 57H15M15 57C15 53.7 17.7 51 21 51M15 57C15 60.3137 17.6863 63 21 63C24.3137 63 27 60.3137 27 57M15 57C15 53.6863 17.6863 51 21 51M21 51C24.3 51 27 53.7 27 57M21 51C24.3137 51 27 53.6863 27 57M27 57H39M39 57C39 53.7 41.7 51 45 51M39 57C39 60.3137 41.6863 63 45 63C48.3137 63 51 60.3137 51 57M39 57C39 53.6863 41.6863 51 45 51M45 51C48.3 51 51 53.7 51 57M45 51C48.3137 51 51 53.6863 51 57M51 57H54C58.98 57 63 52.98 63 48V39M63 39H54C52.35 39 51 37.65 51 36V27C51 25.35 52.35 24 54 24H57.8699M63 39V33L57.8699 24M3 21H21M3 30H15M3 39H9" stroke="#1F2B4D" stroke-width="4.5" stroke-linecap="round" stroke-linejoin="round"/>
</svg>
